<mxfile host="65bd71144e">
    <diagram name="api-1" id="EjO4HiSS11ZoHee_JRug">
        <mxGraphModel dx="1306" dy="1299" grid="1" gridSize="10" guides="1" tooltips="1" connect="1" arrows="1" fold="1" page="1" pageScale="1" pageWidth="850" pageHeight="1100" math="0" shadow="0">
            <root>
                <mxCell id="0"/>
                <mxCell id="1" parent="0"/>
                <mxCell id="DQ-6sMdtE_yKGO2NUZRS-1" value="Employee" style="swimlane;fontStyle=0;childLayout=stackLayout;horizontal=1;startSize=26;fillColor=#647687;horizontalStack=0;resizeParent=1;resizeParentMax=0;resizeLast=0;collapsible=1;marginBottom=0;whiteSpace=wrap;html=1;strokeColor=#314354;fontColor=#ffffff;" parent="1" vertex="1">
                    <mxGeometry x="160" y="220" width="140" height="104" as="geometry"/>
                </mxCell>
                <mxCell id="DQ-6sMdtE_yKGO2NUZRS-2" value="ID: Edm.String {id}" style="text;strokeColor=none;fillColor=none;align=left;verticalAlign=top;spacingLeft=4;spacingRight=4;overflow=hidden;rotatable=0;points=[[0,0.5],[1,0.5]];portConstraint=eastwest;whiteSpace=wrap;html=1;" parent="DQ-6sMdtE_yKGO2NUZRS-1" vertex="1">
                    <mxGeometry y="26" width="140" height="26" as="geometry"/>
                </mxCell>
                <mxCell id="DQ-6sMdtE_yKGO2NUZRS-3" value="Name: Edm.String" style="text;strokeColor=none;fillColor=none;align=left;verticalAlign=top;spacingLeft=4;spacingRight=4;overflow=hidden;rotatable=0;points=[[0,0.5],[1,0.5]];portConstraint=eastwest;whiteSpace=wrap;html=1;" parent="DQ-6sMdtE_yKGO2NUZRS-1" vertex="1">
                    <mxGeometry y="52" width="140" height="26" as="geometry"/>
                </mxCell>
                <mxCell id="DQ-6sMdtE_yKGO2NUZRS-4" value="Jobtitle: Edm.String" style="text;strokeColor=none;fillColor=none;align=left;verticalAlign=top;spacingLeft=4;spacingRight=4;overflow=hidden;rotatable=0;points=[[0,0.5],[1,0.5]];portConstraint=eastwest;whiteSpace=wrap;html=1;" parent="DQ-6sMdtE_yKGO2NUZRS-1" vertex="1">
                    <mxGeometry y="78" width="140" height="26" as="geometry"/>
                </mxCell>
                <mxCell id="zTBj_2CuTswkZanUlRRf-7" value="Department" style="swimlane;fontStyle=0;childLayout=stackLayout;horizontal=1;startSize=26;horizontalStack=0;resizeParent=1;resizeParentMax=0;resizeLast=0;collapsible=1;marginBottom=0;whiteSpace=wrap;html=1;fillColor=#647687;strokeColor=#314354;fontColor=#ffffff;" parent="1" vertex="1">
                    <mxGeometry x="520" y="233" width="140" height="78" as="geometry"/>
                </mxCell>
                <mxCell id="zTBj_2CuTswkZanUlRRf-8" value="ID: Edm.String {id}" style="text;strokeColor=none;fillColor=none;align=left;verticalAlign=top;spacingLeft=4;spacingRight=4;overflow=hidden;rotatable=0;points=[[0,0.5],[1,0.5]];portConstraint=eastwest;whiteSpace=wrap;html=1;" parent="zTBj_2CuTswkZanUlRRf-7" vertex="1">
                    <mxGeometry y="26" width="140" height="26" as="geometry"/>
                </mxCell>
                <mxCell id="zTBj_2CuTswkZanUlRRf-9" value="Name: Edm.String" style="text;strokeColor=none;fillColor=none;align=left;verticalAlign=top;spacingLeft=4;spacingRight=4;overflow=hidden;rotatable=0;points=[[0,0.5],[1,0.5]];portConstraint=eastwest;whiteSpace=wrap;html=1;" parent="zTBj_2CuTswkZanUlRRf-7" vertex="1">
                    <mxGeometry y="52" width="140" height="26" as="geometry"/>
                </mxCell>
                <mxCell id="zTBj_2CuTswkZanUlRRf-14" value="" style="endArrow=open;startArrow=open;html=1;rounded=0;startFill=0;endFill=0;endSize=10;startSize=10;" parent="1" source="DQ-6sMdtE_yKGO2NUZRS-1" target="zTBj_2CuTswkZanUlRRf-7" edge="1">
                    <mxGeometry width="50" height="50" relative="1" as="geometry">
                        <mxPoint x="380" y="487" as="sourcePoint"/>
                        <mxPoint x="540" y="272" as="targetPoint"/>
                    </mxGeometry>
                </mxCell>
                <mxCell id="ZQbqBnWHf6n8oa-0C1Kw-1" value="&lt;div style=&quot;text-align: left;&quot;&gt;&lt;span style=&quot;background-color: initial;&quot;&gt;\*&lt;/span&gt;&lt;/div&gt;&lt;div style=&quot;text-align: left;&quot;&gt;&lt;span style=&quot;background-color: initial;&quot;&gt;Employees&lt;/span&gt;&lt;/div&gt;" style="text;strokeColor=none;align=center;fillColor=none;html=1;verticalAlign=middle;whiteSpace=wrap;rounded=0;" parent="1" vertex="1">
                    <mxGeometry x="320" y="277" width="60" height="30" as="geometry"/>
                </mxCell>
                <mxCell id="ZQbqBnWHf6n8oa-0C1Kw-2" value="&lt;div style=&quot;&quot;&gt;&lt;div style=&quot;text-align: right;&quot;&gt;&lt;span style=&quot;background-color: initial;&quot;&gt;1&lt;/span&gt;&lt;/div&gt;&lt;div style=&quot;text-align: right;&quot;&gt;&lt;span style=&quot;background-color: initial;&quot;&gt;Department&lt;/span&gt;&lt;/div&gt;&lt;/div&gt;" style="text;strokeColor=none;align=center;fillColor=none;html=1;verticalAlign=middle;whiteSpace=wrap;rounded=0;" parent="1" vertex="1">
                    <mxGeometry x="440" y="233" width="60" height="30" as="geometry"/>
                </mxCell>
            </root>
        </mxGraphModel>
    </diagram>
    <diagram id="0CPCkknw8gVCiOM62pMd" name="api-2">
        <mxGraphModel grid="1" page="1" gridSize="10" guides="1" tooltips="1" connect="1" arrows="1" fold="1" pageScale="1" pageWidth="850" pageHeight="1100" math="0" shadow="0">
            <root>
                <mxCell id="0"/>
                <mxCell id="1" parent="0"/>
                <mxCell id="tGJ9_lwMkdlYArJJHZ5n-11" value="Employee_history" style="swimlane;fontStyle=0;childLayout=stackLayout;horizontal=1;startSize=26;fillColor=#647687;horizontalStack=0;resizeParent=1;resizeParentMax=0;resizeLast=0;collapsible=1;marginBottom=0;whiteSpace=wrap;html=1;strokeColor=#314354;fontColor=#ffffff;" vertex="1" parent="1">
                    <mxGeometry x="140" y="320" width="140" height="132" as="geometry"/>
                </mxCell>
                <mxCell id="tGJ9_lwMkdlYArJJHZ5n-12" value="From: Edm.Date {id}" style="text;strokeColor=none;fillColor=none;align=left;verticalAlign=top;spacingLeft=4;spacingRight=4;overflow=hidden;rotatable=0;points=[[0,0.5],[1,0.5]];portConstraint=eastwest;whiteSpace=wrap;html=1;" vertex="1" parent="tGJ9_lwMkdlYArJJHZ5n-11">
                    <mxGeometry y="26" width="140" height="28" as="geometry"/>
                </mxCell>
                <mxCell id="A7kr2BUiLCmLg605ZhEn-12" value="To: Edm.Date" style="text;strokeColor=none;fillColor=none;align=left;verticalAlign=top;spacingLeft=4;spacingRight=4;overflow=hidden;rotatable=0;points=[[0,0.5],[1,0.5]];portConstraint=eastwest;whiteSpace=wrap;html=1;" vertex="1" parent="tGJ9_lwMkdlYArJJHZ5n-11">
                    <mxGeometry y="54" width="140" height="26" as="geometry"/>
                </mxCell>
                <mxCell id="tGJ9_lwMkdlYArJJHZ5n-13" value="Name: Edm.String" style="text;strokeColor=none;fillColor=none;align=left;verticalAlign=top;spacingLeft=4;spacingRight=4;overflow=hidden;rotatable=0;points=[[0,0.5],[1,0.5]];portConstraint=eastwest;whiteSpace=wrap;html=1;" vertex="1" parent="tGJ9_lwMkdlYArJJHZ5n-11">
                    <mxGeometry y="80" width="140" height="26" as="geometry"/>
                </mxCell>
                <mxCell id="tGJ9_lwMkdlYArJJHZ5n-14" value="Jobtitle: Edm.String" style="text;strokeColor=none;fillColor=none;align=left;verticalAlign=top;spacingLeft=4;spacingRight=4;overflow=hidden;rotatable=0;points=[[0,0.5],[1,0.5]];portConstraint=eastwest;whiteSpace=wrap;html=1;" vertex="1" parent="tGJ9_lwMkdlYArJJHZ5n-11">
                    <mxGeometry y="106" width="140" height="26" as="geometry"/>
                </mxCell>
                <mxCell id="tGJ9_lwMkdlYArJJHZ5n-15" value="Department_history" style="swimlane;fontStyle=0;childLayout=stackLayout;horizontal=1;startSize=26;horizontalStack=0;resizeParent=1;resizeParentMax=0;resizeLast=0;collapsible=1;marginBottom=0;whiteSpace=wrap;html=1;fillColor=#647687;strokeColor=#314354;fontColor=#ffffff;" vertex="1" parent="1">
                    <mxGeometry x="500" y="322" width="140" height="130" as="geometry"/>
                </mxCell>
                <mxCell id="tGJ9_lwMkdlYArJJHZ5n-16" value="From: Edm.Date {id}" style="text;strokeColor=none;fillColor=none;align=left;verticalAlign=top;spacingLeft=4;spacingRight=4;overflow=hidden;rotatable=0;points=[[0,0.5],[1,0.5]];portConstraint=eastwest;whiteSpace=wrap;html=1;" vertex="1" parent="tGJ9_lwMkdlYArJJHZ5n-15">
                    <mxGeometry y="26" width="140" height="26" as="geometry"/>
                </mxCell>
                <mxCell id="A7kr2BUiLCmLg605ZhEn-13" value="To: Edm.Date" style="text;strokeColor=none;fillColor=none;align=left;verticalAlign=top;spacingLeft=4;spacingRight=4;overflow=hidden;rotatable=0;points=[[0,0.5],[1,0.5]];portConstraint=eastwest;whiteSpace=wrap;html=1;" vertex="1" parent="tGJ9_lwMkdlYArJJHZ5n-15">
                    <mxGeometry y="52" width="140" height="26" as="geometry"/>
                </mxCell>
                <mxCell id="4geJFlWAXh2WMSx4eKG4-5" value="Name: Edm.String" style="text;strokeColor=none;fillColor=none;align=left;verticalAlign=top;spacingLeft=4;spacingRight=4;overflow=hidden;rotatable=0;points=[[0,0.5],[1,0.5]];portConstraint=eastwest;whiteSpace=wrap;html=1;" vertex="1" parent="tGJ9_lwMkdlYArJJHZ5n-15">
                    <mxGeometry y="78" width="140" height="26" as="geometry"/>
                </mxCell>
                <mxCell id="tGJ9_lwMkdlYArJJHZ5n-17" value="Budget: Edm.Decimal" style="text;strokeColor=none;fillColor=none;align=left;verticalAlign=top;spacingLeft=4;spacingRight=4;overflow=hidden;rotatable=0;points=[[0,0.5],[1,0.5]];portConstraint=eastwest;whiteSpace=wrap;html=1;" vertex="1" parent="tGJ9_lwMkdlYArJJHZ5n-15">
                    <mxGeometry y="104" width="140" height="26" as="geometry"/>
                </mxCell>
                <mxCell id="A7kr2BUiLCmLg605ZhEn-1" value="Employee" style="swimlane;fontStyle=0;childLayout=stackLayout;horizontal=1;startSize=26;fillColor=#647687;horizontalStack=0;resizeParent=1;resizeParentMax=0;resizeLast=0;collapsible=1;marginBottom=0;whiteSpace=wrap;html=1;strokeColor=#314354;fontColor=#ffffff;" vertex="1" parent="1">
                    <mxGeometry x="140" y="190" width="140" height="52" as="geometry"/>
                </mxCell>
                <mxCell id="A7kr2BUiLCmLg605ZhEn-2" value="ID: Edm.String {id}" style="text;strokeColor=none;fillColor=none;align=left;verticalAlign=top;spacingLeft=4;spacingRight=4;overflow=hidden;rotatable=0;points=[[0,0.5],[1,0.5]];portConstraint=eastwest;whiteSpace=wrap;html=1;" vertex="1" parent="A7kr2BUiLCmLg605ZhEn-1">
                    <mxGeometry y="26" width="140" height="26" as="geometry"/>
                </mxCell>
                <mxCell id="A7kr2BUiLCmLg605ZhEn-5" value="Department" style="swimlane;fontStyle=0;childLayout=stackLayout;horizontal=1;startSize=26;horizontalStack=0;resizeParent=1;resizeParentMax=0;resizeLast=0;collapsible=1;marginBottom=0;whiteSpace=wrap;html=1;fillColor=#647687;strokeColor=#314354;fontColor=#ffffff;" vertex="1" parent="1">
                    <mxGeometry x="500" y="192" width="140" height="52" as="geometry"/>
                </mxCell>
                <mxCell id="A7kr2BUiLCmLg605ZhEn-6" value="ID: Edm.String {id}" style="text;strokeColor=none;fillColor=none;align=left;verticalAlign=top;spacingLeft=4;spacingRight=4;overflow=hidden;rotatable=0;points=[[0,0.5],[1,0.5]];portConstraint=eastwest;whiteSpace=wrap;html=1;" vertex="1" parent="A7kr2BUiLCmLg605ZhEn-5">
                    <mxGeometry y="26" width="140" height="26" as="geometry"/>
                </mxCell>
                <mxCell id="A7kr2BUiLCmLg605ZhEn-8" value="" style="endArrow=none;startArrow=open;html=1;rounded=0;startFill=0;endFill=0;endSize=10;startSize=10;" edge="1" parent="1" source="A7kr2BUiLCmLg605ZhEn-1" target="A7kr2BUiLCmLg605ZhEn-5">
                    <mxGeometry width="50" height="50" relative="1" as="geometry">
                        <mxPoint x="360" y="387" as="sourcePoint"/>
                        <mxPoint x="520" y="172" as="targetPoint"/>
                    </mxGeometry>
                </mxCell>
                <mxCell id="A7kr2BUiLCmLg605ZhEn-9" value="&lt;div style=&quot;text-align: left;&quot;&gt;&lt;span style=&quot;background-color: initial;&quot;&gt;\*&lt;/span&gt;&lt;/div&gt;&lt;div style=&quot;text-align: left;&quot;&gt;&lt;span style=&quot;background-color: initial;&quot;&gt;Employees&lt;/span&gt;&lt;/div&gt;" style="text;strokeColor=none;align=center;fillColor=none;html=1;verticalAlign=middle;whiteSpace=wrap;rounded=0;" vertex="1" parent="1">
                    <mxGeometry x="300" y="220" width="60" height="30" as="geometry"/>
                </mxCell>
                <mxCell id="4geJFlWAXh2WMSx4eKG4-1" value="" style="endArrow=diamondThin;startArrow=none;html=1;rounded=0;startFill=0;endFill=1;endSize=20;startSize=10;exitX=0.5;exitY=0;exitDx=0;exitDy=0;" edge="1" parent="1" source="tGJ9_lwMkdlYArJJHZ5n-15" target="A7kr2BUiLCmLg605ZhEn-5">
                    <mxGeometry width="50" height="50" relative="1" as="geometry">
                        <mxPoint x="270" y="228" as="sourcePoint"/>
                        <mxPoint x="510" y="228" as="targetPoint"/>
                    </mxGeometry>
                </mxCell>
                <mxCell id="4geJFlWAXh2WMSx4eKG4-2" value="&lt;div style=&quot;text-align: left;&quot;&gt;&lt;span style=&quot;background-color: initial;&quot;&gt;\*&lt;/span&gt;&lt;/div&gt;&lt;div style=&quot;text-align: left;&quot;&gt;history&lt;/div&gt;" style="text;strokeColor=none;align=center;fillColor=none;html=1;verticalAlign=middle;whiteSpace=wrap;rounded=0;" vertex="1" parent="1">
                    <mxGeometry x="570" y="282" width="60" height="30" as="geometry"/>
                </mxCell>
                <mxCell id="4geJFlWAXh2WMSx4eKG4-3" value="" style="endArrow=diamondThin;startArrow=none;html=1;rounded=0;startFill=0;endFill=1;endSize=20;startSize=10;exitX=0.5;exitY=0;exitDx=0;exitDy=0;" edge="1" parent="1" source="tGJ9_lwMkdlYArJJHZ5n-11" target="A7kr2BUiLCmLg605ZhEn-1">
                    <mxGeometry width="50" height="50" relative="1" as="geometry">
                        <mxPoint x="600" y="370" as="sourcePoint"/>
                        <mxPoint x="600" y="252" as="targetPoint"/>
                    </mxGeometry>
                </mxCell>
                <mxCell id="4geJFlWAXh2WMSx4eKG4-4" value="&lt;div style=&quot;text-align: left;&quot;&gt;&lt;span style=&quot;background-color: initial;&quot;&gt;\*&lt;/span&gt;&lt;/div&gt;&lt;div style=&quot;text-align: left;&quot;&gt;history&lt;/div&gt;" style="text;strokeColor=none;align=center;fillColor=none;html=1;verticalAlign=middle;whiteSpace=wrap;rounded=0;" vertex="1" parent="1">
                    <mxGeometry x="210" y="280" width="60" height="30" as="geometry"/>
                </mxCell>
                <mxCell id="oybXAxUS38R0ONOGhTzv-1" value="&lt;div style=&quot;&quot;&gt;&lt;div style=&quot;text-align: right;&quot;&gt;&lt;span style=&quot;background-color: initial;&quot;&gt;1&lt;/span&gt;&lt;/div&gt;&lt;div style=&quot;text-align: right;&quot;&gt;&lt;span style=&quot;background-color: initial;&quot;&gt;Department&lt;/span&gt;&lt;/div&gt;&lt;/div&gt;" style="text;strokeColor=none;align=center;fillColor=none;html=1;verticalAlign=middle;whiteSpace=wrap;rounded=0;" vertex="1" parent="1">
                    <mxGeometry x="420" y="240" width="60" height="30" as="geometry"/>
                </mxCell>
                <mxCell id="oybXAxUS38R0ONOGhTzv-2" value="" style="edgeStyle=elbowEdgeStyle;html=1;labelBackgroundColor=none;rounded=1;elbow=horizontal;endArrow=open;endFill=0;align=left;startSize=10;endSize=10;entryX=0;entryY=0.5;entryDx=0;entryDy=0;" edge="1" parent="1" source="tGJ9_lwMkdlYArJJHZ5n-11" target="A7kr2BUiLCmLg605ZhEn-6">
                    <mxGeometry width="80" height="80" relative="1" as="geometry">
                        <mxPoint x="300" y="560" as="sourcePoint"/>
                        <mxPoint x="380" y="480" as="targetPoint"/>
                        <Array as="points">
                            <mxPoint x="400" y="310"/>
                        </Array>
                    </mxGeometry>
                </mxCell>
            </root>
        </mxGraphModel>
    </diagram>
</mxfile>
